HIERARCHY
ROOT Hips
{
	OFFSET 0.000000 0.000000 0.000000
	CHANNELS 6 Xposition Yposition Zposition Zrotation Yrotation Xrotation 
	JOINT LeftUpLeg_virtual
	{
		OFFSET 0.000000 0.000000 0.000000
		CHANNELS 3 Zrotation Yrotation Xrotation
		JOINT LeftUpLeg
		{
			OFFSET 8.479694 -4.795517 -0.379053
			CHANNELS 3 Zrotation Yrotation Xrotation
			JOINT LeftLeg
			{
				OFFSET 0.485052 -32.551468 0.112863
				CHANNELS 3 Zrotation Yrotation Xrotation
				JOINT LeftFoot
				{
					OFFSET 0.438033 -32.635670 -3.012641
					CHANNELS 3 Zrotation Yrotation Xrotation
					JOINT LeftToeBase
					{
						OFFSET 0.970169 -13.225353 11.864223
						CHANNELS 3 Zrotation Yrotation Xrotation
						End Site
						{
							OFFSET 0.000000 0.000000 0.000000
						}
					}
				}
			}
		}
	}
	JOINT RightUpLeg_virtual
	{
		OFFSET 0.000000 0.000000 0.000000
		CHANNELS 3 Zrotation Yrotation Xrotation
		JOINT RightUpLeg
		{
			OFFSET -8.479694 -4.795517 -0.379053
			CHANNELS 3 Zrotation Yrotation Xrotation
			JOINT RightLeg
			{
				OFFSET -0.484100 -32.551483 0.112903
				CHANNELS 3 Zrotation Yrotation Xrotation
				JOINT RightFoot
				{
					OFFSET -0.438985 -32.635651 -3.012681
					CHANNELS 3 Zrotation Yrotation Xrotation
					JOINT RightToeBase
					{
						OFFSET -0.970169 -13.225354 11.864223
						CHANNELS 3 Zrotation Yrotation Xrotation
						End Site
						{
							OFFSET 0.000000 0.000000 0.000000
						}
					}
				}
			}
		}
	}
	JOINT Spine_virtual
	{
		OFFSET 0.000000 0.000000 0.000000
		CHANNELS 3 Zrotation Yrotation Xrotation
		JOINT Spine
		{
			OFFSET 0.000000 7.722015 1.166203
			CHANNELS 3 Zrotation Yrotation Xrotation
			JOINT Spine1
			{
				OFFSET 0.000000 12.024086 0.248766
				CHANNELS 3 Zrotation Yrotation Xrotation
				JOINT Spine2
				{
					OFFSET -0.000000 11.503036 -0.491240
					CHANNELS 3 Zrotation Yrotation Xrotation
					JOINT Neck_virtual
					{
						OFFSET 0.000000 0.000000 0.000000
						CHANNELS 3 Zrotation Yrotation Xrotation
						JOINT Neck
						{
							OFFSET 0.000000 18.430687 -3.123054
							CHANNELS 3 Zrotation Yrotation Xrotation
							JOINT Head
							{
								OFFSET -0.000000 9.051071 1.034021
								CHANNELS 3 Zrotation Yrotation Xrotation
								End Site
								{
									OFFSET 0.000000 0.000000 0.000000
								}
							}
						}
					}
					JOINT LeftShoulder_virtual
					{
						OFFSET 0.000000 0.000000 0.000000
						CHANNELS 3 Zrotation Yrotation Xrotation
						JOINT LeftShoulder
						{
							OFFSET 6.197824 13.665230 -4.064723
							CHANNELS 3 Zrotation Yrotation Xrotation
							JOINT LeftArm
							{
								OFFSET 7.778132 -0.187073 -1.709282
								CHANNELS 3 Zrotation Yrotation Xrotation
								JOINT LeftForeArm
								{
									OFFSET 21.954697 0.000000 -2.041093
									CHANNELS 3 Zrotation Yrotation Xrotation
									JOINT LeftHand
									{
										OFFSET 22.992908 0.000000 -0.870901
										CHANNELS 3 Zrotation Yrotation Xrotation
										End Site
										{
											OFFSET 0.000000 0.000000 0.000000
										}
									}
								}
							}
						}
					}
					JOINT RightShoulder_virtual
					{
						OFFSET 0.000000 0.000000 0.000000
						CHANNELS 3 Zrotation Yrotation Xrotation
						JOINT RightShoulder
						{
							OFFSET -6.197824 13.665230 -4.064723
							CHANNELS 3 Zrotation Yrotation Xrotation
							JOINT RightArm
							{
								OFFSET -7.778132 -0.187073 -1.709282
								CHANNELS 3 Zrotation Yrotation Xrotation
								JOINT RightForeArm
								{
									OFFSET -21.954697 0.000000 -2.041093
									CHANNELS 3 Zrotation Yrotation Xrotation
									JOINT RightHand
									{
										OFFSET -22.992908 0.000000 -0.870901
										CHANNELS 3 Zrotation Yrotation Xrotation
										End Site
										{
											OFFSET 0.000000 0.000000 0.000000
										}
									}
								}
							}
						}
					}
				}
			}
		}
	}
}
MOTION
Frames: 12
Frame Time: 0.033333
-5.579672 67.452126 -30.187342 179.293094 25.563701 179.681909 0.440649 2.014093 24.468029 8.530029 -3.777879 -73.247577 7.000724 2.979557 69.158302 -0.755074 -5.429058 -18.910559 0.000000 0.000000 0.000000 6.344587 -0.847992 24.875626 -10.204572 -6.348100 -72.647531 3.980853 3.656755 78.400641 3.655160 4.113075 -19.884303 0.000000 0.000000 0.000000 6.112465 0.978764 32.393719 5.932357 -0.625473 17.438257 -1.641118 -1.297202 6.975133 0.106709 -0.058550 0.006905 -1.064617 -0.573868 7.219247 -4.706632 -7.505134 -4.425970 0.000000 0.000000 0.000000 0.013518 -0.159963 2.914726 4.906967 -3.886650 3.938911 -68.472496 -25.068020 14.434561 57.733745 -83.706454 -35.066785 0.000000 0.000000 0.000000 -4.224595 1.630774 1.756556 3.353147 1.672399 -5.850697 72.601748 44.539107 35.944519 -154.930929 73.909982 -164.253892 0.000000 0.000000 0.000000 
-5.795124 66.583054 -29.768932 179.353705 25.868863 179.675544 0.407912 2.083960 24.217945 8.462867 -2.942998 -74.549165 7.121513 3.066357 71.240301 -1.069490 -5.870594 -19.623453 0.000000 0.000000 0.000000 6.442577 -0.702433 24.726775 -10.185870 -6.214276 -74.256205 4.105056 3.748342 80.551508 3.346916 4.399541 -20.137361 0.000000 0.000000 0.000000 6.222406 1.093155 32.235040 5.656508 -0.753584 17.365952 -1.580801 -1.335249 6.812836 0.111164 -0.115896 -0.026158 -0.939336 -0.591862 7.103505 -4.738125 -7.262766 -4.459182 0.000000 0.000000 0.000000 0.157302 0.001775 2.804426 4.830712 -3.605998 3.917406 -67.942931 -25.582067 14.299871 56.016468 -83.792180 -33.551487 0.000000 0.000000 0.000000 -4.163930 1.712581 1.670541 3.136744 1.647801 -6.057574 71.315358 45.374238 34.193300 -154.708088 74.010536 -164.301102 0.000000 0.000000 0.000000 
-6.045544 65.659851 -29.298967 179.398539 26.124913 179.667225 0.401573 2.058917 23.808892 8.378166 -2.206573 -75.741395 7.215716 3.134006 73.272261 -1.382438 -6.309819 -20.315291 0.000000 0.000000 0.000000 6.516451 -0.551212 24.454808 -10.198021 -6.091206 -75.827100 4.232317 3.839581 82.692404 3.038549 4.696966 -20.453669 0.000000 0.000000 0.000000 6.490650 1.265554 31.954449 5.489803 -0.757123 17.351068 -1.440111 -1.328742 6.663628 0.124922 -0.125068 -0.014879 -0.845507 -0.797107 6.969207 -4.748770 -7.222464 -4.447127 0.000000 0.000000 0.000000 0.181734 -0.049484 2.840983 4.809564 -3.538462 3.659333 -67.343917 -26.196876 14.055860 53.630854 -83.885248 -31.334630 0.000000 0.000000 0.000000 -4.114931 1.697119 1.562281 2.910524 1.356639 -6.255700 69.727332 46.384306 31.732198 -155.261852 74.079808 -165.179601 0.000000 0.000000 0.000000 
-6.356718 64.741722 -28.813602 179.430053 26.708096 179.665066 0.469804 2.188943 23.302157 8.236256 -1.601115 -76.714936 7.319421 3.340335 75.129513 -1.658998 -6.680447 -20.956052 0.000000 0.000000 0.000000 6.590017 -0.276268 23.891795 -10.369239 -5.853169 -77.144268 4.369871 3.967188 84.748680 2.804277 5.052156 -20.752837 0.000000 0.000000 0.000000 6.688947 1.450347 31.542736 5.271050 -0.812775 17.409995 -1.337475 -1.245657 6.523777 0.058827 -0.023907 -0.001318 -0.807935 -0.674042 6.754713 -4.916965 -6.865381 -4.456021 0.000000 0.000000 0.000000 0.311162 -0.159644 2.693182 4.585542 -3.368486 3.691062 -66.654928 -26.980164 13.858438 53.765316 -83.734055 -31.626238 0.000000 0.000000 0.000000 -4.000104 1.677004 1.449987 2.598986 1.254157 -6.466305 67.642273 47.603799 28.633444 -155.716374 74.084303 -165.928559 0.000000 0.000000 0.000000 
-6.716219 63.907898 -28.334644 179.503450 26.759344 179.690474 0.573403 1.838564 22.677003 8.297082 -1.361403 -77.501596 7.433599 3.427587 76.741547 -1.830918 -6.827146 -21.377461 0.000000 0.000000 0.000000 6.616710 -0.407328 23.270941 -10.439192 -5.837349 -78.312285 4.466266 3.950827 86.492161 2.689368 5.456164 -20.792955 0.000000 0.000000 0.000000 7.080547 1.216416 30.898468 5.212236 -0.828754 17.538536 -1.343914 -1.307094 6.387431 0.066526 -0.123328 -0.030603 -0.650564 -0.399364 6.642128 -4.973645 -6.731650 -4.386618 0.000000 0.000000 0.000000 0.431958 -0.009011 2.634414 4.451477 -3.370969 3.399671 -66.114530 -27.851435 13.817999 51.076903 -83.767530 -28.918235 0.000000 0.000000 0.000000 -3.950931 1.812517 1.322656 2.409420 1.045633 -6.575008 65.207679 48.576780 25.228103 -155.494475 74.135269 -165.925567 0.000000 0.000000 0.000000 
-7.064935 63.236248 -27.921894 179.510636 26.916802 179.725390 0.664359 1.567961 22.022581 8.382671 -1.343275 -78.036503 7.583126 3.580631 78.008888 -1.940833 -6.817988 -21.574204 0.000000 0.000000 0.000000 6.566473 -0.559203 22.477922 -10.613124 -5.786907 -79.069398 4.529927 3.880016 87.826807 2.718518 5.953386 -20.679748 0.000000 0.000000 0.000000 7.301036 1.041958 30.080286 5.120971 -0.941464 17.694525 -1.289371 -1.301686 6.265296 0.076185 -0.092350 -0.023695 -0.706899 -0.516947 6.445680 -5.301291 -6.596271 -4.338289 0.000000 0.000000 0.000000 0.421267 -0.011442 2.539188 4.138679 -3.377378 3.476470 -65.525099 -28.773927 13.742052 51.606485 -83.769326 -29.392251 0.000000 0.000000 0.000000 -3.946911 1.726196 1.202852 2.162252 0.941827 -6.580023 62.888209 49.203593 21.973960 -155.749118 73.939584 -166.402150 0.000000 0.000000 0.000000 
-7.289954 62.766140 -27.607771 179.554882 27.020677 179.765251 0.848477 1.379465 21.421346 8.589391 -1.546422 -78.339087 7.723621 3.710652 78.875154 -2.027072 -6.733049 -21.596348 0.000000 0.000000 0.000000 6.487734 -0.641139 21.618739 -10.720725 -5.736217 -79.391722 4.505664 3.678944 88.783518 2.833118 6.432870 -20.400484 0.000000 0.000000 0.000000 7.516371 0.885084 29.197771 5.139469 -0.859121 17.886052 -1.246230 -1.329516 6.167751 0.077785 -0.101968 -0.011712 -0.682900 -0.565602 6.314597 -5.548776 -6.358723 -4.209315 0.000000 0.000000 0.000000 0.517339 -0.027246 2.424101 3.751478 -3.372020 3.448006 -65.118948 -29.335618 13.804556 51.373486 -83.943011 -28.993576 0.000000 0.000000 0.000000 -3.902474 1.683061 1.031273 2.075431 0.672978 -6.406513 60.938442 49.428897 19.461422 -155.752588 73.729549 -166.336758 0.000000 0.000000 0.000000 
-7.376757 62.510059 -27.367947 179.600357 27.114828 179.825958 1.073314 1.348313 20.866214 8.823921 -1.847176 -78.462413 7.823768 3.787901 79.298278 -2.145999 -6.655739 -21.468762 0.000000 0.000000 0.000000 6.445089 -0.565461 21.144118 -10.733945 -5.753709 -79.740799 4.416689 3.446620 89.394602 2.926477 6.784078 -19.940316 0.000000 0.000000 0.000000 7.674879 0.964406 28.258950 5.171919 -1.001254 18.056228 -1.199383 -1.304973 6.083095 0.066836 -0.046259 -0.002776 -0.669177 -0.643434 6.215886 -5.804487 -6.399772 -4.091252 0.000000 0.000000 0.000000 0.577245 -0.061127 2.320796 3.359800 -3.463093 3.521720 -64.894570 -29.528796 13.808044 52.071054 -84.273989 -29.395427 0.000000 0.000000 0.000000 -3.882895 1.643365 0.875281 2.176073 0.453435 -6.213685 59.512866 49.165894 17.596505 -155.770892 73.455652 -166.312688 0.000000 0.000000 0.000000 
-7.317897 62.422466 -27.168524 179.618361 27.344162 -179.954680 1.369356 1.532222 20.312535 8.996781 -2.218979 -78.456949 7.870521 3.766916 79.303387 -2.227005 -6.574748 -21.279629 0.000000 0.000000 0.000000 6.461031 -0.356184 20.691448 -10.722750 -5.670774 -80.011083 4.289576 3.225927 89.762278 2.923036 6.983722 -19.417000 0.000000 0.000000 0.000000 7.769185 1.357348 27.161448 5.277350 -1.023539 18.152496 -1.157309 -1.412375 6.027377 0.053212 -0.102632 0.064576 -0.628599 -0.642572 6.147008 -6.102639 -6.292990 -4.019093 0.000000 0.000000 0.000000 0.694676 -0.082508 2.209542 2.860949 -3.402249 3.708106 -64.717887 -29.583783 14.035392 53.756946 -84.611509 -30.713462 0.000000 0.000000 0.000000 -3.783755 1.684944 0.830142 2.288318 0.375721 -5.901736 58.666680 48.815604 16.202290 -155.507220 72.984908 -165.944391 0.000000 0.000000 0.000000 
-7.170135 62.435867 -26.960552 179.632732 27.573802 -179.832133 1.706178 1.818671 19.807870 9.075355 -2.800245 -78.146086 7.868797 3.638446 79.104696 -2.218442 -6.414801 -20.958963 0.000000 0.000000 0.000000 6.492506 -0.049619 20.152425 -10.584610 -5.721329 -79.786848 4.174595 3.019242 89.955798 2.800052 7.031581 -18.986884 0.000000 0.000000 0.000000 7.806486 1.894803 25.988328 5.414872 -1.227595 18.297537 -1.113294 -1.442532 6.013416 0.036252 -0.106675 0.039787 -0.582051 -0.793906 6.153629 -6.299436 -6.458970 -3.901155 0.000000 0.000000 0.000000 0.815899 -0.103248 2.085162 2.507440 -3.433300 3.831721 -64.650807 -29.362840 14.151066 54.476800 -84.913226 -30.979727 0.000000 0.000000 0.000000 -3.730957 1.703925 0.692589 2.625181 0.383980 -5.521012 57.931923 48.468573 14.874363 -155.621434 72.764341 -165.950661 0.000000 0.000000 0.000000 
-7.022111 62.512035 -26.663710 179.548844 27.640094 -179.926703 2.027802 2.004612 19.219876 9.051093 -3.520465 -77.475519 7.889387 3.374473 78.694735 -2.057676 -6.092834 -20.488495 0.000000 0.000000 0.000000 6.498011 0.286015 19.573736 -10.349967 -5.882906 -79.152330 4.107126 2.899626 89.843933 2.524300 6.935605 -19.089416 0.000000 0.000000 0.000000 7.720763 2.350705 24.738739 5.636757 -1.235250 18.524095 -1.101465 -1.388519 6.081861 0.066200 -0.018268 0.048259 -0.537460 -0.751001 6.129410 -6.212399 -6.755531 -3.883938 0.000000 0.000000 0.000000 0.939846 -0.425911 1.940617 2.248269 -3.624888 4.090811 -64.728439 -29.357878 14.287516 55.299028 -85.100230 -31.312732 0.000000 0.000000 0.000000 -3.652813 1.544438 0.557323 2.937905 0.321470 -5.011452 57.391703 48.247036 13.704358 -155.042275 72.568301 -165.250430 0.000000 0.000000 0.000000 
-6.866268 62.634869 -26.320576 179.442839 27.682704 179.883701 2.308019 2.158022 18.496352 8.946423 -4.335503 -76.497121 7.950808 3.024899 78.232816 -1.809765 -5.732877 -19.824344 0.000000 0.000000 0.000000 6.522741 0.690147 18.864938 -10.109117 -5.960277 -78.121607 4.071571 2.871373 89.481967 2.189072 6.722800 -19.454856 0.000000 0.000000 0.000000 7.523927 2.848742 23.412458 5.910014 -1.316708 18.758093 -1.105218 -1.526650 6.157969 0.101118 -0.133849 0.018248 -0.624539 -0.698607 6.113751 -6.242863 -7.184724 -4.077570 0.000000 0.000000 0.000000 0.870397 -0.235224 1.981442 2.155558 -3.945714 4.224310 -64.869435 -29.335092 14.417950 55.942135 -85.235556 -31.428395 0.000000 0.000000 0.000000 -3.660662 1.499825 0.632212 3.110712 0.508912 -4.763029 57.142650 48.034207 12.892032 -154.803055 72.488483 -164.876887 0.000000 0.000000 0.000000 
